<svg width="28" height="27" viewBox="0 0 28 27" xmlns="http://www.w3.org/2000/svg">
<path d="M27.9062 10.161C27.7851 9.78773 27.5569 9.45834 27.2499 9.21384C26.943 8.96935 26.5709 8.82056 26.18 8.786L18.7562 8.146L15.8462 1.226C15.6947 0.862896 15.4392 0.552735 15.1117 0.334573C14.7843 0.11641 14.3997 0 14.0062 0C13.6128 0 13.2281 0.11641 12.9007 0.334573C12.5733 0.552735 12.3177 0.862896 12.1662 1.226L9.26497 8.146L1.83247 8.78975C1.44001 8.82273 1.06603 8.97084 0.757415 9.21552C0.448801 9.4602 0.219297 9.79055 0.0976817 10.1651C-0.0239337 10.5397 -0.0322462 10.9419 0.0737867 11.3212C0.17982 11.7005 0.395478 12.04 0.693717 12.2973L6.33247 17.2248L4.64247 24.5422C4.5531 24.9252 4.5786 25.326 4.71578 25.6945C4.85295 26.063 5.09571 26.3829 5.41371 26.6142C5.73171 26.8455 6.11083 26.9779 6.50368 26.9949C6.89653 27.0119 7.28568 26.9127 7.62247 26.7097L13.9975 22.8347L20.3862 26.7097C20.723 26.9127 21.1121 27.0119 21.505 26.9949C21.8979 26.9779 22.277 26.8455 22.595 26.6142C22.913 26.3829 23.1557 26.063 23.2929 25.6945C23.4301 25.326 23.4556 24.9252 23.3662 24.5422L21.6775 17.2173L27.315 12.2973C27.6132 12.0391 27.8284 11.6986 27.9336 11.3185C28.0388 10.9384 28.0293 10.5357 27.9062 10.161ZM26.0037 10.786L20.3662 15.706C20.0918 15.9447 19.8877 16.2536 19.7758 16.5996C19.664 16.9457 19.6485 17.3156 19.7312 17.6698L21.425 24.9998L15.0412 21.1248C14.7298 20.9351 14.3721 20.8348 14.0075 20.8348C13.6428 20.8348 13.2852 20.9351 12.9737 21.1248L6.59872 24.9998L8.28122 17.6747C8.3639 17.3206 8.34847 16.9507 8.23659 16.6046C8.1247 16.2586 7.92059 15.9497 7.64622 15.711L2.00622 10.7935C2.00576 10.7898 2.00576 10.786 2.00622 10.7823L9.43622 10.1398C9.79897 10.1078 10.1461 9.97737 10.4402 9.76259C10.7343 9.54781 10.9641 9.25682 11.105 8.921L14.0062 2.00975L16.9062 8.921C17.0471 9.25682 17.2769 9.54781 17.571 9.76259C17.8651 9.97737 18.2122 10.1078 18.575 10.1398L26.0062 10.7823C26.0062 10.7823 26.0062 10.7898 26.0062 10.791L26.0037 10.786Z" />
</svg>
