<svg width="27" height="28" viewBox="0 0 27 28" xmlns="http://www.w3.org/2000/svg">
<path d="M25.8638 19.4999C25.9958 19.7291 26.0317 20.0013 25.9635 20.2569C25.8954 20.5125 25.7287 20.7307 25.5 20.8637L13.5 27.8637C13.3471 27.9528 13.1733 27.9998 12.9963 27.9998C12.8192 27.9998 12.6454 27.9528 12.4925 27.8637L0.4925 20.8637C0.267117 20.7282 0.104148 20.5095 0.0388751 20.2547C-0.0263974 20 0.0112804 19.7299 0.143751 19.5027C0.276221 19.2756 0.492823 19.1097 0.746661 19.0411C1.0005 18.9725 1.27114 19.0067 1.5 19.1362L13 25.8424L24.5 19.1362C24.7292 19.0041 25.0014 18.9682 25.257 19.0364C25.5126 19.1045 25.7308 19.2712 25.8638 19.4999ZM24.5 13.1362L13 19.8424L1.5 13.1362C1.27231 13.0228 1.00997 13.0004 0.766382 13.0737C0.522796 13.1469 0.31627 13.3102 0.188841 13.5303C0.061412 13.7505 0.0226569 14.0109 0.0804636 14.2586C0.13827 14.5063 0.288294 14.7227 0.5 14.8637L12.5 21.8637C12.6529 21.9528 12.8267 21.9998 13.0037 21.9998C13.1808 21.9998 13.3546 21.9528 13.5075 21.8637L25.5075 14.8637C25.6228 14.7984 25.7239 14.711 25.8051 14.6064C25.8863 14.5017 25.9459 14.382 25.9804 14.2542C26.015 14.1264 26.0238 13.9929 26.0064 13.8617C25.9889 13.7304 25.9456 13.6039 25.8789 13.4895C25.8122 13.3751 25.7234 13.2751 25.6177 13.1953C25.5121 13.1155 25.3916 13.0575 25.2633 13.0246C25.135 12.9917 25.0015 12.9847 24.8705 13.0038C24.7394 13.023 24.6135 13.0679 24.5 13.1362ZM0 7.9999C0.000398802 7.82475 0.046794 7.65278 0.134542 7.50119C0.222291 7.34961 0.348314 7.22373 0.5 7.13615L12.5 0.136151C12.6529 0.0469833 12.8267 0 13.0037 0C13.1808 0 13.3546 0.0469833 13.5075 0.136151L25.5075 7.13615C25.6585 7.22422 25.7837 7.35031 25.8707 7.50187C25.9578 7.65342 26.0036 7.82513 26.0036 7.9999C26.0036 8.17467 25.9578 8.34639 25.8707 8.49794C25.7837 8.64949 25.6585 8.77558 25.5075 8.86365L13.5075 15.8637C13.3546 15.9528 13.1808 15.9998 13.0037 15.9998C12.8267 15.9998 12.6529 15.9528 12.5 15.8637L0.5 8.86365C0.348314 8.77608 0.222291 8.6502 0.134542 8.49861C0.046794 8.34702 0.000398802 8.17505 0 7.9999ZM2.985 7.9999L13 13.8424L23.015 7.9999L13 2.1574L2.985 7.9999Z" />
</svg>
