<svg width="32" height="12" viewBox="0 0 32 12" xmlns="http://www.w3.org/2000/svg">
<path d="M31.9575 10.7126C31.9581 10.7093 31.9581 10.7059 31.9575 10.7026L29.1712 1.42506C29.0496 1.01209 28.7971 0.649818 28.4517 0.392808C28.1063 0.135798 27.6868 -0.00203596 27.2563 6.38897e-05H26C25.7348 6.38897e-05 25.4804 0.105421 25.2929 0.292957C25.1054 0.480494 25 0.734847 25 1.00006C25 1.26528 25.1054 1.51963 25.2929 1.70717C25.4804 1.89471 25.7348 2.00006 26 2.00006H27.2563L29.6562 10.0001H25.75L23.1712 1.42506C23.0496 1.01209 22.7971 0.649818 22.4517 0.392808C22.1063 0.135798 21.6868 -0.00203596 21.2563 6.38897e-05H20C19.7348 6.38897e-05 19.4804 0.105421 19.2929 0.292957C19.1054 0.480494 19 0.734847 19 1.00006C19 1.26528 19.1054 1.51963 19.2929 1.70717C19.4804 1.89471 19.7348 2.00006 20 2.00006H21.2563L23.6562 10.0001H19.75L17.1712 1.42506C17.0496 1.01209 16.7971 0.649818 16.4517 0.392808C16.1063 0.135798 15.6868 -0.00203596 15.2563 6.38897e-05H4.75C4.31842 -0.00339669 3.89746 0.133809 3.55081 0.390921C3.20416 0.648032 2.95069 1.01106 2.82875 1.42506L0.04625 10.7001V10.7063C0.04625 10.7063 0.04625 10.7126 0.04625 10.7163C0.0174152 10.8082 0.00184159 10.9038 0 11.0001C0 11.2653 0.105357 11.5196 0.292893 11.7072C0.48043 11.8947 0.734784 12.0001 1 12.0001H31C31.1559 12 31.3096 11.9635 31.4489 11.8935C31.5881 11.8235 31.7091 11.7219 31.8021 11.5968C31.8952 11.4717 31.9577 11.3266 31.9846 11.1731C32.0116 11.0196 32.0023 10.8619 31.9575 10.7126ZM4.75 2.00006H15.2625L17.6625 10.0001H2.34375L4.75 2.00006Z" />
</svg>
